<svg width="88" height="88" viewBox="0 0 88 88" fill="none" xmlns="http://www.w3.org/2000/svg">
<path d="M44.9436 86.973C58.8447 86.973 70.1138 85.6258 70.1138 83.964C70.1138 82.3022 58.8447 80.9551 44.9436 80.9551C31.0425 80.9551 19.7734 82.3022 19.7734 83.964C19.7734 85.6258 31.0425 86.973 44.9436 86.973Z" fill="#00112C"/>
<path d="M68.5849 18.1492C67.7013 13.8507 64.3102 10.4835 60.0117 9.57606C64.3102 8.69248 67.6774 5.30144 68.5849 1.00293C69.4684 5.30144 72.8595 8.6686 77.158 9.57606C72.8595 10.4835 69.4684 13.8507 68.5849 18.1492Z" fill="url(#paint0_linear)"/>
<path d="M80.2634 24.9312C79.7858 22.6625 78.0187 20.8953 75.75 20.4177C78.0187 19.9401 79.7858 18.173 80.2634 15.9043C80.741 18.173 82.5082 19.9401 84.7769 20.4177C82.5082 20.8953 80.741 22.6864 80.2634 24.9312Z" fill="#00112C"/>
<path d="M69.9705 72.5016C69.7078 71.2837 68.7526 70.3285 67.5586 70.0897C68.7765 69.827 69.7317 68.8718 69.9705 67.6777C70.2332 68.8956 71.1884 69.8509 72.3825 70.0897C71.1884 70.3285 70.2332 71.2837 69.9705 72.5016Z" fill="url(#paint1_linear)"/>
<path d="M8.28555 24.9315C7.59302 21.5404 4.91839 18.8897 1.52734 18.1732C4.91839 17.4807 7.59302 14.8061 8.28555 11.415C9.00197 14.8061 11.6766 17.4807 15.0676 18.1732C11.6766 18.8897 9.00197 21.5404 8.28555 24.9315Z" fill="#00112C"/>
<path d="M15.0686 11.7252C14.8059 10.5312 13.8507 9.57599 12.6328 9.31331C13.8507 9.0745 14.8059 8.11928 15.0686 6.90137C15.3074 8.11928 16.2627 9.0745 17.4806 9.31331C16.2627 9.57599 15.3074 10.5312 15.0686 11.7252Z" fill="url(#paint2_linear)"/>
<path d="M44.9427 82.9134C40.2144 82.9134 15.1875 71.5462 15.1875 41.982C15.1875 36.3223 15.1875 24.2387 15.1875 21.5402C24.3338 22.8059 40.4293 15.9761 44.9427 10.2925C49.48 15.9761 65.5755 22.8059 74.6979 21.5402C74.6979 24.2387 74.6979 36.3223 74.6979 41.982C74.6979 71.5462 49.6472 82.9134 44.9427 82.9134Z" fill="url(#paint3_linear)"/>
<path d="M44.9405 78.5434C42.8152 78.5434 36.2958 76.1314 30.1823 70.2807C24.9286 65.2658 18.6719 56.4061 18.6719 42.5792V24.8598C18.6719 24.7165 18.7435 24.5971 18.839 24.5016C18.9346 24.4061 19.0778 24.3583 19.2211 24.3822C26.9346 25.4568 40.7137 19.6777 44.5823 14.8061C44.7734 14.5673 45.1555 14.5673 45.3226 14.8061C49.1913 19.6777 62.9704 25.4568 70.6838 24.3822C70.8271 24.3583 70.9704 24.4061 71.0659 24.5016C71.1614 24.5971 71.2331 24.7165 71.2331 24.8598V42.5792C71.2331 56.3822 64.9763 65.2658 59.7226 70.2807C53.5853 76.1314 47.0659 78.5434 44.9405 78.5434ZM19.6032 25.409V42.6031C19.6032 67.9643 41.1674 77.612 44.9166 77.612C48.6659 77.612 70.2301 67.9643 70.2301 42.6031V25.409C66.5286 25.7673 61.442 24.7881 56.1405 22.7105C51.245 20.7762 47.0181 18.1971 44.9166 15.8568C42.8152 18.1971 38.5883 20.7762 33.6928 22.7105C28.3913 24.7881 23.3047 25.7673 19.6032 25.409Z" fill="white"/>
<path d="M44.9406 59.9163C53.1704 59.9163 59.842 53.2446 59.842 45.0148C59.842 36.7849 53.1704 30.1133 44.9406 30.1133C36.7107 30.1133 30.0391 36.7849 30.0391 45.0148C30.0391 53.2446 36.7107 59.9163 44.9406 59.9163Z" fill="#00112C"/>
<path d="M41.8105 53.0387C44.509 53.0387 51.0762 44.3939 53.2732 42.2208C54.2284 41.2655 54.7777 39.6655 53.6553 39.0447C52.5329 38.4238 51.8403 38.8058 50.718 39.8566C49.5956 40.9073 41.7866 49.2417 41.7866 49.2417C41.7866 49.2417 39.3269 46.6148 38.515 45.8984C37.703 45.1581 36.509 44.3939 35.5777 45.3491C34.6224 46.3043 35.0045 47.4267 36.1986 48.6446C37.2732 49.6715 39.3269 52.7282 41.8105 53.0387Z" fill="white"/>
<defs>
<linearGradient id="paint0_linear" x1="60.0117" y1="1.00293" x2="77.158" y2="1.00293" gradientUnits="userSpaceOnUse">
<stop stop-color="#A177FF"/>
<stop offset="1" stop-color="#02CEFF"/>
</linearGradient>
<linearGradient id="paint1_linear" x1="67.5586" y1="67.6777" x2="72.3825" y2="67.6777" gradientUnits="userSpaceOnUse">
<stop stop-color="#A177FF"/>
<stop offset="1" stop-color="#02CEFF"/>
</linearGradient>
<linearGradient id="paint2_linear" x1="12.6328" y1="6.90137" x2="17.4806" y2="6.90137" gradientUnits="userSpaceOnUse">
<stop stop-color="#A177FF"/>
<stop offset="1" stop-color="#02CEFF"/>
</linearGradient>
<linearGradient id="paint3_linear" x1="15.1875" y1="10.2925" x2="74.6979" y2="10.2925" gradientUnits="userSpaceOnUse">
<stop stop-color="#A177FF"/>
<stop offset="1" stop-color="#02CEFF"/>
</linearGradient>
</defs>
</svg>
