<svg width="88" height="88" viewBox="0 0 88 88" fill="none" xmlns="http://www.w3.org/2000/svg">
<g clip-path="url(#clip0)">
<path fill-rule="evenodd" clip-rule="evenodd" d="M41.8402 17.6238V21.2537V25.3612H50.2939V21.8507V17.6238C50.2939 15.2835 48.4074 13.397 46.0671 13.397C43.7268 13.397 41.8402 15.2835 41.8402 17.6238ZM58.7477 25.3611V21.8507C58.7477 19.5104 56.8611 17.6238 54.5208 17.6238C52.1805 17.6238 50.2939 19.5104 50.2939 21.8507V25.3611H58.7477ZM33.4342 24.8119V25.3611H24.9805V24.8119C24.9805 22.4716 26.867 20.585 29.2073 20.585C31.5476 20.585 33.4342 22.4716 33.4342 24.8119ZM41.8402 25.3611V21.2537C41.5536 19.2 39.7864 17.6238 37.6611 17.6238C35.3208 17.6238 33.4342 19.5104 33.4342 21.8507V25.3611H41.8402Z" fill="url(#paint0_linear)"/>
<path d="M28.3956 42.8895C27.4165 42.3402 26.318 42.0298 25.1717 42.0298C21.5897 42.0298 18.6523 44.9432 18.6523 48.5492C18.6523 52.1552 21.5658 55.0686 25.1717 55.0686C26.318 55.0686 27.4165 54.782 28.3956 54.2089C29.3747 54.7581 30.4732 55.0686 31.6195 55.0686C35.2016 55.0686 38.1389 52.1552 38.1389 48.5492C38.1389 44.9432 35.2016 42.0298 31.6195 42.0298C30.4732 42.0298 29.3747 42.3402 28.3956 42.8895Z" fill="#00112C"/>
<path d="M66.0302 18.5554C65.1466 14.2569 61.7555 10.8898 57.457 9.98231C61.7555 9.09873 65.1227 5.70769 66.0302 1.40918C66.9137 5.70769 70.3048 9.07485 74.6033 9.98231C70.3048 10.8898 66.9137 14.2569 66.0302 18.5554Z" fill="url(#paint1_linear)"/>
<path d="M77.7087 25.3613C77.2311 23.0927 75.464 21.3255 73.1953 20.8479C75.464 20.3703 77.2311 18.6031 77.7087 16.3345C78.1864 18.6031 79.9535 20.3703 82.2222 20.8479C79.9774 21.3016 78.1864 23.0927 77.7087 25.3613Z" fill="#00112C"/>
<path d="M73.1932 70.1852C72.9305 68.9673 71.9753 68.0121 70.7812 67.7733C71.9992 67.5106 72.9544 66.5554 73.1932 65.3613C73.4559 66.5792 74.4111 67.5345 75.6051 67.7733C74.4111 68.0121 73.4559 68.9673 73.1932 70.1852Z" fill="url(#paint2_linear)"/>
<path d="M10.9852 22.4002C10.2688 19.0092 7.59417 16.3584 4.20312 15.642C7.59417 14.9495 10.2688 12.2748 10.9852 8.88379C11.6778 12.2748 14.3524 14.9495 17.7434 15.642C14.3524 16.3584 11.6778 19.0092 10.9852 22.4002Z" fill="#00112C"/>
<path d="M17.744 9.21792C17.4813 8.00001 16.5261 7.04479 15.332 6.80598C16.5499 6.5433 17.5052 5.58807 17.744 4.39404C18.0067 5.61195 18.9619 6.56718 20.1559 6.80598C18.938 7.04479 17.9828 8.00001 17.744 9.21792Z" fill="url(#paint3_linear)"/>
<path d="M70.1135 25.3374H17.8866C14.8777 25.3374 12.418 27.7971 12.418 30.8061V55.6658C12.418 58.6747 14.8777 61.1344 17.8866 61.1344H54.7344V60.1792H17.8866C15.403 60.1792 13.3732 58.1494 13.3732 55.6658V34.5792H74.603V55.6658C74.603 58.1494 72.5732 60.1792 70.0896 60.1792H66.5792V61.1344H70.0896C73.0986 61.1344 75.5583 58.6747 75.5583 55.6658V30.8061C75.5821 27.7971 73.1224 25.3374 70.1135 25.3374Z" fill="#00112C"/>
<path d="M66.6037 60.1793V67.7494C66.6037 73.242 58.3649 77.0629 58.3649 83.8449C58.3649 90.6032 58.3649 88.0002 58.3649 88.0002H29.4932C29.4932 88.0002 29.4932 90.627 29.4932 83.8449C29.4932 77.0867 23.332 73.242 23.332 67.7494V61.1345H54.735V53.2778C54.735 50.0062 57.3858 47.3315 60.6813 47.3315C63.9529 47.3315 66.6275 49.9823 66.6275 53.2778V60.1793H66.6037Z" fill="url(#paint4_linear)"/>
</g>
<defs>
<linearGradient id="paint0_linear" x1="24.9805" y1="13.397" x2="58.7477" y2="13.397" gradientUnits="userSpaceOnUse">
<stop stop-color="#A177FF"/>
<stop offset="1" stop-color="#02CEFF"/>
</linearGradient>
<linearGradient id="paint1_linear" x1="57.457" y1="1.40918" x2="74.6033" y2="1.40918" gradientUnits="userSpaceOnUse">
<stop stop-color="#A177FF"/>
<stop offset="1" stop-color="#02CEFF"/>
</linearGradient>
<linearGradient id="paint2_linear" x1="70.7812" y1="65.3613" x2="75.6051" y2="65.3613" gradientUnits="userSpaceOnUse">
<stop stop-color="#A177FF"/>
<stop offset="1" stop-color="#02CEFF"/>
</linearGradient>
<linearGradient id="paint3_linear" x1="15.332" y1="4.39404" x2="20.1559" y2="4.39404" gradientUnits="userSpaceOnUse">
<stop stop-color="#A177FF"/>
<stop offset="1" stop-color="#02CEFF"/>
</linearGradient>
<linearGradient id="paint4_linear" x1="23.332" y1="47.3315" x2="66.6275" y2="47.3315" gradientUnits="userSpaceOnUse">
<stop stop-color="#A177FF"/>
<stop offset="1" stop-color="#02CEFF"/>
</linearGradient>
<clipPath id="clip0">
<rect width="88" height="88" fill="white"/>
</clipPath>
</defs>
</svg>
